<?xml version="1.0" encoding="utf-8"?>
<svg xmlns="http://www.w3.org/2000/svg" style="margin: auto; background: rgba(241, 242, 243, 0); display: block; shape-rendering: auto; animation-play-state: running; animation-delay: 0s;" width="290" height="250" preserveAspectRatio="xMidYMid">
<style type="text/css" style="animation-play-state: running; animation-delay: 0s;">
  text {
    text-anchor: middle; font-size: 48px; opacity: 0;
  }
</style>
<g transform="translate(145,125)" style="animation-play-state: running; animation-delay: 0s;">
  <g transform="translate(0,0)" style="animation-play-state: running; animation-delay: 0s;"><g class="path" style="transform-origin: -92.09px -5.11667px; transform: rotate(0deg); animation: 1s linear -0.6s infinite normal forwards running spin-ac31bd74-7316-487e-bcf8-394cd56771d9;"><path d="M9.46-30.43L9.46-30.43L9.46-2.45L13.34-1.73L13.34-1.73Q13.54-0.96 13.34 0.19L13.34 0.19L13.34 0.19Q10.32 0.05 7.15 0.05L7.15 0.05L7.15 0.05Q4.94 0.05 0.91 0.14L0.91 0.14L0.91 0.14Q0.62-0.77 0.91-1.73L0.91-1.73L4.70-2.26L4.70-2.26Q4.90-4.90 4.90-8.35L4.90-8.35L4.90-35.86L0.96-36.34L0.96-36.34Q0.77-37.06 0.96-38.16L0.96-38.16L0.96-38.16Q4.27-38.40 9.22-39.17L9.22-39.17L9.22-39.17Q9.65-38.69 9.70-38.21L9.70-38.21L9.70-38.21Q9.46-36.96 9.46-30.43" fill="#689cc5" stroke="none" stroke-width="none" transform="translate(-99.19251108169556,14.373326389139345)" style="fill: rgb(147, 219, 233); animation-play-state: running; animation-delay: 0s;"></path></g><g class="path" style="transform-origin: -70.6325px 1.55833px; transform: rotate(0deg); animation: 1s linear -0.54s infinite normal forwards running spin-ac31bd74-7316-487e-bcf8-394cd56771d9;"><path d="M16.42-12.77L16.42-12.77L16.42-12.77Q16.42-15.65 17.26-18.17L17.26-18.17L17.26-18.17Q18.10-20.69 19.68-22.56L19.68-22.56L19.68-22.56Q21.26-24.43 23.50-25.51L23.50-25.51L23.50-25.51Q25.73-26.59 28.51-26.59L28.51-26.59L28.51-26.59Q31.25-26.59 33.50-25.51L33.50-25.51L33.50-25.51Q35.76-24.43 37.37-22.56L37.37-22.56L37.37-22.56Q38.98-20.69 39.84-18.17L39.84-18.17L39.84-18.17Q40.70-15.65 40.70-12.77L40.70-12.77L40.70-12.77Q40.70-9.79 39.82-7.30L39.82-7.30L39.82-7.30Q38.93-4.80 37.32-2.95L37.32-2.95L37.32-2.95Q35.71-1.10 33.46-0.07L33.46-0.07L33.46-0.07Q31.20 0.96 28.51 0.96L28.51 0.96L28.51 0.96Q25.68 0.96 23.45-0.05L23.45-0.05L23.45-0.05Q21.22-1.06 19.66-2.88L19.66-2.88L19.66-2.88Q18.10-4.70 17.26-7.22L17.26-7.22L17.26-7.22Q16.42-9.74 16.42-12.77zM23.42-21.60L23.42-21.60L23.42-21.60Q21.36-18.67 21.36-12.77L21.36-12.77L21.36-12.77Q21.36-9.84 21.91-7.63L21.91-7.63L21.91-7.63Q22.46-5.42 23.42-3.96L23.42-3.96L23.42-3.96Q24.38-2.50 25.68-1.78L25.68-1.78L25.68-1.78Q26.98-1.06 28.51-1.06L28.51-1.06L28.51-1.06Q30-1.06 31.34-1.78L31.34-1.78L31.34-1.78Q32.69-2.50 33.65-3.96L33.65-3.96L33.65-3.96Q34.61-5.42 35.18-7.63L35.18-7.63L35.18-7.63Q35.76-9.84 35.76-12.77L35.76-12.77L35.76-12.77Q35.76-15.70 35.18-17.93L35.18-17.93L35.18-17.93Q34.61-20.16 33.62-21.62L33.62-21.62L33.62-21.62Q32.64-23.09 31.32-23.83L31.32-23.83L31.32-23.83Q30-24.58 28.51-24.58L28.51-24.58L28.51-24.58Q25.54-24.58 23.42-21.60" fill="#689cc5" stroke="none" stroke-width="none" transform="translate(-99.19251108169556,14.373326389139345)" style="fill: rgb(104, 156, 197); animation-play-state: running; animation-delay: 0s;"></path></g><g class="path" style="transform-origin: -42.815px 1.55833px; transform: rotate(0deg); animation: 1s linear -0.48s infinite normal forwards running spin-ac31bd74-7316-487e-bcf8-394cd56771d9;"><path d="M49.25-6.38L49.25-6.38L49.25-6.38Q49.25-3.89 50.16-2.86L50.16-2.86L50.16-2.86Q51.07-1.82 53.04-1.82L53.04-1.82L53.04-1.82Q54.48-1.82 56.23-2.71L56.23-2.71L56.23-2.71Q57.98-3.60 59.47-5.28L59.47-5.28L59.47-12.77L59.47-12.77Q54.53-12.48 51.89-11.02L51.89-11.02L51.89-11.02Q49.25-9.55 49.25-6.38zM59.47-14.50L59.47-14.50L59.47-16.94L59.47-16.94Q59.47-21.02 58.54-22.87L58.54-22.87L58.54-22.87Q57.60-24.72 55.44-24.72L55.44-24.72L55.44-24.72Q53.23-24.72 51.89-23.30L51.89-23.30L51.89-23.30Q50.54-21.89 50.06-18.48L50.06-18.48L50.06-18.48Q48.53-18.14 47.81-18.14L47.81-18.14L47.81-18.14Q45.94-18.14 45.60-19.49L45.60-19.49L45.60-19.49Q45.60-22.75 48.43-24.67L48.43-24.67L48.43-24.67Q51.26-26.59 55.49-26.59L55.49-26.59L55.49-26.59Q60.14-26.59 62.09-24.70L62.09-24.70L62.09-24.70Q64.03-22.80 64.03-17.90L64.03-17.90L64.03-4.37L64.03-4.37Q64.03-3.17 64.18-2.30L64.18-2.30L67.97-1.82L67.97-1.82Q68.16-1.10 67.97 0L67.97 0L67.97 0Q64.56 0.14 60.72 0.67L60.72 0.67L60.72 0.67Q60.34 0.29 60.24-0.29L60.24-0.29L60-3.60L60-3.60Q56.02 0.96 51.12 0.96L51.12 0.96L51.12 0.96Q48.10 0.96 46.39-0.77L46.39-0.77L46.39-0.77Q44.69-2.50 44.69-5.42L44.69-5.42L44.69-5.42Q44.69-9.84 48.70-12.10L48.70-12.10L48.70-12.10Q52.70-14.35 59.47-14.50" fill="#689cc5" stroke="none" stroke-width="none" transform="translate(-99.19251108169556,14.373326389139345)" style="fill: rgb(94, 111, 163); animation-play-state: running; animation-delay: 0s;"></path></g><g class="path" style="transform-origin: -15.11px -4.70667px; transform: rotate(0deg); animation: 1s linear -0.42s infinite normal forwards running spin-ac31bd74-7316-487e-bcf8-394cd56771d9;"><path d="M93.65-30.43L93.65-6.82L93.65-6.82Q93.65-3.60 93.79-2.30L93.79-2.30L97.58-1.82L97.58-1.82Q97.73-1.06 97.58 0L97.58 0L97.58 0Q94.08 0.14 90.29 0.67L90.29 0.67L90.29 0.67Q89.95 0.34 89.81-0.24L89.81-0.24L89.57-3.31L89.57-3.31Q87.89-1.34 85.39-0.17L85.39-0.17L85.39-0.17Q82.90 1.01 80.16 1.01L80.16 1.01L80.16 1.01Q75.98 1.01 73.25-2.47L73.25-2.47L73.25-2.47Q70.51-5.95 70.51-11.76L70.51-11.76L70.51-11.76Q70.51-18.48 74.09-22.54L74.09-22.54L74.09-22.54Q77.66-26.59 82.66-26.59L82.66-26.59L82.66-26.59Q86.59-26.59 89.09-24.72L89.09-24.72L89.09-31.15L89.09-31.15Q89.09-34.32 88.94-35.86L88.94-35.86L85.15-36.34L85.15-36.34Q84.96-37.06 85.15-38.16L85.15-38.16L85.15-38.16Q88.46-38.40 93.41-39.17L93.41-39.17L93.41-39.17Q93.84-38.69 93.89-38.21L93.89-38.21L93.89-38.21Q93.65-36.96 93.65-30.43L93.65-30.43zM82.27-24L82.27-24L82.27-24Q79.15-24 77.28-20.71L77.28-20.71L77.28-20.71Q75.41-17.42 75.41-11.62L75.41-11.62L75.41-11.62Q75.41-6.86 77.16-4.37L77.16-4.37L77.16-4.37Q78.91-1.87 81.79-1.87L81.79-1.87L81.79-1.87Q83.52-1.87 85.58-2.95L85.58-2.95L85.58-2.95Q87.65-4.03 89.09-5.95L89.09-5.95L89.09-21.31L89.09-21.31Q86.74-24 82.27-24" fill="#689cc5" stroke="none" stroke-width="none" transform="translate(-99.19251108169556,14.373326389139345)" style="fill: rgb(59, 67, 104); animation-play-state: running; animation-delay: 0s;"></path></g><g class="path" style="transform-origin: 6.84251px 1.17333px; transform: rotate(0deg); animation: 1s linear -0.36s infinite normal forwards running spin-ac31bd74-7316-487e-bcf8-394cd56771d9;"><path d="M108.38-17.86L108.38-17.86L108.38-2.45L112.27-1.73L112.27-1.73Q112.32-1.49 112.34-1.30L112.34-1.30L112.34-1.30Q112.37-1.10 112.37-0.86L112.37-0.86L112.37-0.86Q112.37-0.62 112.34-0.36L112.34-0.36L112.34-0.36Q112.32-0.10 112.27 0.19L112.27 0.19L112.27 0.19Q109.25 0.05 106.08 0.05L106.08 0.05L106.08 0.05Q104.98 0.05 103.42 0.07L103.42 0.07L103.42 0.07Q101.86 0.10 99.84 0.14L99.84 0.14L99.84 0.14Q99.70-0.29 99.70-0.77L99.70-0.77L99.70-0.77Q99.70-1.20 99.84-1.73L99.84-1.73L103.63-2.26L103.63-2.26Q103.73-3.60 103.78-5.11L103.78-5.11L103.78-5.11Q103.82-6.62 103.82-8.35L103.82-8.35L103.82-18.58L103.82-18.58Q103.82-21.74 103.68-23.28L103.68-23.28L99.89-23.76L99.89-23.76Q99.79-24 99.79-24.58L99.79-24.58L99.79-24.58Q99.79-24.82 99.79-25.06L99.79-25.06L99.79-25.06Q99.79-25.30 99.89-25.58L99.89-25.58L99.89-25.58Q103.15-25.78 108.14-26.59L108.14-26.59L108.14-26.59Q108.58-26.11 108.62-25.63L108.62-25.63L108.62-25.63Q108.38-24.29 108.38-17.86" fill="#689cc5" stroke="none" stroke-width="none" transform="translate(-99.19251108169556,14.373326389139345)" style="fill: rgb(25, 29, 58); animation-play-state: running; animation-delay: 0s;"></path></g><g class="path" style="transform-origin: 5.63753px -21.4567px; transform: rotate(0deg); animation: 1s linear -0.3s infinite normal forwards running spin-ac31bd74-7316-487e-bcf8-394cd56771d9;"><path d="M101.38-34.99L101.38-34.99L101.38-34.99Q101.28-35.23 101.28-35.50L101.28-35.50L101.28-35.50Q101.28-35.76 101.28-36L101.28-36L101.28-36Q101.28-37.30 102.36-38.09L102.36-38.09L102.36-38.09Q103.44-38.88 105.02-38.88L105.02-38.88L105.02-38.88Q106.51-38.88 107.45-37.99L107.45-37.99L107.45-37.99Q108.38-37.10 108.38-35.57L108.38-35.57L108.38-35.57Q108.38-34.32 107.30-33.55L107.30-33.55L107.30-33.55Q106.22-32.78 104.54-32.78L104.54-32.78L104.54-32.78Q103.39-32.78 102.50-33.36L102.50-33.36L102.50-33.36Q101.62-33.94 101.38-34.99" fill="#689cc5" stroke="none" stroke-width="none" transform="translate(-99.19251108169556,14.373326389139345)" style="fill: rgb(217, 219, 238); animation-play-state: running; animation-delay: 0s;"></path></g><g class="path" style="transform-origin: 29.7125px 1.17333px; transform: rotate(0deg); animation: 1s linear -0.24s infinite normal forwards running spin-ac31bd74-7316-487e-bcf8-394cd56771d9;"><path d="M134.69-8.35L134.69-17.14L134.69-17.14Q134.69-20.83 133.70-22.32L133.70-22.32L133.70-22.32Q132.72-23.81 130.42-23.81L130.42-23.81L130.42-23.81Q126.86-23.81 123.26-18.48L123.26-18.48L123.26-2.45L127.15-1.73L127.15-1.73Q127.34-0.96 127.15 0.19L127.15 0.19L127.15 0.19Q124.13 0.05 120.96 0.05L120.96 0.05L120.96 0.05Q118.75 0.05 114.72 0.14L114.72 0.14L114.72 0.14Q114.43-0.77 114.72-1.73L114.72-1.73L118.51-2.26L118.51-2.26Q118.70-4.90 118.70-8.35L118.70-8.35L118.70-21.50L118.70-21.50Q118.70-22.46 118.56-23.28L118.56-23.28L114.77-23.76L114.77-23.76Q114.58-24.48 114.77-25.58L114.77-25.58L114.77-25.58Q118.08-25.82 123.02-26.59L123.02-26.59L123.02-26.59Q123.46-26.11 123.50-25.63L123.50-25.63L123.50-25.63Q123.26-24.38 123.26-21.36L123.26-21.36L123.26-21.36Q127.06-26.59 131.81-26.59L131.81-26.59L131.81-26.59Q139.25-26.59 139.25-19.54L139.25-19.54L139.25-2.45L143.14-1.73L143.14-1.73Q143.33-0.96 143.14 0.19L143.14 0.19L143.14 0.19Q140.11 0.05 136.94 0.05L136.94 0.05L136.94 0.05Q134.74 0.05 130.70 0.14L130.70 0.14L130.70 0.14Q130.42-0.77 130.70-1.73L130.70-1.73L134.50-2.26L134.50-2.26Q134.69-4.90 134.69-8.35L134.69-8.35" fill="#689cc5" stroke="none" stroke-width="none" transform="translate(-99.19251108169556,14.373326389139345)" style="fill: rgb(179, 183, 226); animation-play-state: running; animation-delay: 0s;"></path></g><g class="path" style="transform-origin: 57.8375px 4.98832px; transform: rotate(0deg); animation: 1s linear -0.18s infinite normal forwards running spin-ac31bd74-7316-487e-bcf8-394cd56771d9;"><path d="M149.62 0.53L149.62 0.53L149.62 0.53Q150.05 0.72 150.34 1.34L150.34 1.34L150.34 1.34Q148.75 2.64 148.75 5.23L148.75 5.23L148.75 5.23Q148.75 7.54 150.86 8.93L150.86 8.93L150.86 8.93Q152.98 10.32 156.34 10.32L156.34 10.32L156.34 10.32Q159.79 10.32 162.10 9.05L162.10 9.05L162.10 9.05Q164.40 7.78 164.40 5.47L164.40 5.47L164.40 5.47Q164.40 2.98 163.49 1.80L163.49 1.80L163.49 1.80Q162.58 0.62 159.84 0.38L159.84 0.38L150.86-0.43L150.86-0.43Q149.38-0.62 148.39-1.99L148.39-1.99L148.39-1.99Q147.41-3.36 147.41-4.66L147.41-4.66L150.62-9.98L150.62-9.98Q148.42-11.23 147.29-13.30L147.29-13.30L147.29-13.30Q146.16-15.36 146.16-17.52L146.16-17.52L146.16-17.52Q146.16-21.60 149.18-24.10L149.18-24.10L149.18-24.10Q152.21-26.59 156.14-26.59L156.14-26.59L156.14-26.59Q159.94-26.59 162.82-24.58L162.82-24.58L162.82-24.58Q163.06-31.15 167.71-31.39L167.71-31.39L167.71-31.39Q168.96-31.10 168.96-29.33L168.96-29.33L168.96-29.33Q168.96-28.37 168.77-27.22L168.77-27.22L168.77-27.22Q166.90-27.07 165.70-25.99L165.70-25.99L165.70-25.99Q164.50-24.91 163.97-23.52L163.97-23.52L163.97-23.52Q166.37-21.12 166.37-17.52L166.37-17.52L166.37-17.52Q166.37-13.73 163.30-11.21L163.30-11.21L163.30-11.21Q160.22-8.69 156.14-8.69L156.14-8.69L156.14-8.69Q153.98-8.69 152.26-9.26L152.26-9.26L150.62-4.99L162.58-3.79L162.58-3.79Q165.36-3.46 166.82-1.75L166.82-1.75L166.82-1.75Q168.29-0.05 168.29 2.69L168.29 2.69L168.29 2.69Q168.29 7.49 164.83 10.06L164.83 10.06L164.83 10.06Q161.38 12.62 155.47 12.62L155.47 12.62L155.47 12.62Q150.58 12.62 147.84 10.85L147.84 10.85L147.84 10.85Q145.10 9.07 145.10 6.10L145.10 6.10L145.10 6.10Q145.10 4.08 146.40 2.52L146.40 2.52L146.40 2.52Q147.70 0.96 149.62 0.53zM150.48-17.52L150.48-17.52L150.48-17.52Q150.48-14.74 152.04-12.77L152.04-12.77L152.04-12.77Q153.60-10.80 156.19-10.80L156.19-10.80L156.19-10.80Q158.74-10.80 160.37-12.74L160.37-12.74L160.37-12.74Q162-14.69 162-17.52L162-17.52L162-17.52Q162-20.59 160.39-22.63L160.39-22.63L160.39-22.63Q158.78-24.67 156.19-24.67L156.19-24.67L156.19-24.67Q153.74-24.67 152.11-22.61L152.11-22.61L152.11-22.61Q150.48-20.54 150.48-17.52" fill="#689cc5" stroke="none" stroke-width="none" transform="translate(-99.19251108169556,14.373326389139345)" style="fill: rgb(147, 219, 233); animation-play-state: running; animation-delay: 0s;"></path></g><g class="path" style="transform-origin: 75.2425px 12.0183px; transform: rotate(0deg); animation: 1s linear -0.12s infinite normal forwards running spin-ac31bd74-7316-487e-bcf8-394cd56771d9;"><path d="M174.38-5.33L174.38-5.33L174.38-5.33Q175.68-5.33 176.57-4.49L176.57-4.49L176.57-4.49Q177.46-3.65 177.46-2.40L177.46-2.40L177.46-2.40Q177.46-1.15 176.57-0.26L176.57-0.26L176.57-0.26Q175.68 0.62 174.43 0.62L174.43 0.62L174.43 0.62Q173.18 0.62 172.30-0.26L172.30-0.26L172.30-0.26Q171.41-1.15 171.41-2.40L171.41-2.40L171.41-2.40Q171.41-3.65 172.27-4.49L172.27-4.49L172.27-4.49Q173.14-5.33 174.38-5.33" fill="#689cc5" stroke="none" stroke-width="none" transform="translate(-99.19251108169556,14.373326389139345)" style="fill: rgb(104, 156, 197); animation-play-state: running; animation-delay: 0s;"></path></g><g class="path" style="transform-origin: 86.0875px 12.0183px; transform: rotate(0deg); animation: 1s linear -0.06s infinite normal forwards running spin-ac31bd74-7316-487e-bcf8-394cd56771d9;"><path d="M185.23-5.33L185.23-5.33L185.23-5.33Q186.53-5.33 187.42-4.49L187.42-4.49L187.42-4.49Q188.30-3.65 188.30-2.40L188.30-2.40L188.30-2.40Q188.30-1.15 187.42-0.26L187.42-0.26L187.42-0.26Q186.53 0.62 185.28 0.62L185.28 0.62L185.28 0.62Q184.03 0.62 183.14-0.26L183.14-0.26L183.14-0.26Q182.26-1.15 182.26-2.40L182.26-2.40L182.26-2.40Q182.26-3.65 183.12-4.49L183.12-4.49L183.12-4.49Q183.98-5.33 185.23-5.33" fill="#689cc5" stroke="none" stroke-width="none" transform="translate(-99.19251108169556,14.373326389139345)" style="fill: rgb(94, 111, 163); animation-play-state: running; animation-delay: 0s;"></path></g><g class="path" style="transform-origin: 96.9325px 12.0183px; transform: rotate(0deg); animation: 1s linear 0s infinite normal forwards running spin-ac31bd74-7316-487e-bcf8-394cd56771d9;"><path d="M196.08-5.33L196.08-5.33L196.08-5.33Q197.38-5.33 198.26-4.49L198.26-4.49L198.26-4.49Q199.15-3.65 199.15-2.40L199.15-2.40L199.15-2.40Q199.15-1.15 198.26-0.26L198.26-0.26L198.26-0.26Q197.38 0.62 196.13 0.62L196.13 0.62L196.13 0.62Q194.88 0.62 193.99-0.26L193.99-0.26L193.99-0.26Q193.10-1.15 193.10-2.40L193.10-2.40L193.10-2.40Q193.10-3.65 193.97-4.49L193.97-4.49L193.97-4.49Q194.83-5.33 196.08-5.33" fill="#689cc5" stroke="none" stroke-width="none" transform="translate(-99.19251108169556,14.373326389139345)" style="fill: rgb(59, 67, 104); animation-play-state: running; animation-delay: 0s;"></path></g></g>
</g>
<style id="spin-ac31bd74-7316-487e-bcf8-394cd56771d9" data-anikit="">@keyframes spin-ac31bd74-7316-487e-bcf8-394cd56771d9
{
  0% {
    animation-timing-function: cubic-bezier(0.5856,0.0703,0.4143,0.9297);
    transform: rotate(0deg);
  }
  100% {
    transform: rotate(360deg);
  }
}</style><style id="spin-ac31bd74-7316-487e-bcf8-394cd56771d9" data-anikit="">@keyframes spin-ac31bd74-7316-487e-bcf8-394cd56771d9
{
  0% {
    animation-timing-function: cubic-bezier(0.5856,0.0703,0.4143,0.9297);
    transform: rotate(0deg);
  }
  100% {
    transform: rotate(360deg);
  }
}</style></svg>